<svg version="1.1" id="Layer_1" xmlns="http://www.w3.org/2000/svg" xmlns:xlink="http://www.w3.org/1999/xlink" x="0px" y="0px"
	 width="100%" viewBox="0 0 256 256" enable-background="new 0 0 256 256" xml:space="preserve">
<path fill="#020100" opacity="1.000000" stroke="none" 
	d="
M147.000000,257.000000 
	C98.000000,257.000000 49.500008,257.000000 1.000006,257.000000 
	C1.000004,171.666672 1.000004,86.333351 1.000002,1.000012 
	C84.999985,1.000000 169.000015,1.026723 252.999817,0.904056 
	C256.424011,0.899055 257.101105,1.575684 257.096008,5.000103 
	C256.972870,87.666580 256.972839,170.333328 257.095978,252.999802 
	C257.101074,256.423981 256.426361,257.114777 252.999603,257.099060 
	C217.833664,256.937469 182.666687,257.000000 147.000000,257.000000 
z"/>
<path fill="#1A0A0A" opacity="1.000000" stroke="none" 
	d="
M177.022766,183.915344 
	C178.118164,184.464508 179.229431,184.718430 180.336472,184.989639 
	C181.949371,185.384766 184.515945,184.056107 184.954742,186.452667 
	C185.301941,188.348953 183.012100,189.295563 181.541855,190.283722 
	C176.787445,193.479141 171.985992,196.604584 166.996826,200.057709 
	C165.114273,201.656784 165.783813,203.330658 166.094437,204.920746 
	C166.410919,206.540833 167.022903,208.085449 167.305344,209.723175 
	C168.444199,216.326675 166.665207,218.576782 159.330292,219.151276 
	C157.100174,216.388947 155.276917,216.964386 152.848373,218.586746 
	C150.992828,219.826324 150.113922,221.831848 147.985550,223.170380 
	C140.253510,225.868561 132.727356,226.011108 124.747025,224.533508 
	C122.660957,222.577789 120.595886,221.471222 118.258911,220.463623 
	C115.480186,219.265594 116.496727,221.880219 115.316170,222.700562 
	C113.909668,223.729355 112.670692,223.864288 111.012497,223.427063 
	C108.179878,221.973633 106.620888,219.557556 104.354408,217.940521 
	C102.335968,216.500427 100.813858,216.641815 99.125298,218.876801 
	C92.272873,218.668991 90.865891,216.980728 90.610313,210.703506 
	C90.457245,206.943726 93.464127,203.553009 91.345688,199.410217 
	C88.513245,194.381927 82.956673,193.157608 79.594154,189.254532 
	C77.458069,186.775070 78.605469,186.051636 80.908066,184.929321 
	C81.281593,183.539932 80.201294,183.520081 79.306252,182.883926 
	C78.880768,182.548386 78.715988,182.405060 78.298874,182.045837 
	C77.881172,181.678238 77.715813,181.526566 77.317963,181.126862 
	C75.353790,177.460693 71.806183,175.402954 70.359444,171.739838 
	C68.256882,166.416168 69.365189,164.103027 74.996567,163.247253 
	C77.315170,162.894897 77.929710,161.588745 77.446457,159.840958 
	C76.198540,155.327606 76.969559,150.983826 78.018639,146.225082 
	C78.233925,142.317993 77.770477,138.971771 76.645912,135.554352 
	C73.179688,125.020874 71.810776,114.254807 73.948181,103.195190 
	C75.035881,97.567131 76.910789,96.357033 82.986153,98.218185 
	C92.205116,100.890427 99.666595,105.783005 106.029709,112.265778 
	C109.359108,115.657784 112.676781,117.239929 117.550667,115.945244 
	C125.399323,113.860359 133.412720,114.127518 141.264145,116.090096 
	C145.325974,117.105415 148.347610,116.114807 151.069931,113.083351 
	C156.380768,107.169456 163.060532,103.154884 170.508362,99.600777 
	C172.452271,99.057663 173.932251,98.436844 175.662872,97.333572 
	C181.974304,97.072578 183.128723,98.243538 184.040497,104.121666 
	C185.881546,115.990456 184.695511,127.497398 179.807358,138.448761 
	C177.790390,142.967560 180.784378,146.834991 180.478119,151.440247 
	C179.378448,154.699432 180.518036,157.672226 180.105515,160.583206 
	C179.918533,161.902695 180.695389,162.877136 182.097015,162.818344 
	C184.182999,162.730850 186.423248,161.865173 187.912521,164.134232 
	C189.100433,165.944153 188.106735,167.987000 188.395233,170.268631 
	C188.422165,170.877014 188.404907,171.123413 188.287994,171.727783 
	C188.071243,172.302078 187.954147,172.518387 187.629318,173.036209 
	C185.063095,176.984665 181.922043,179.875702 178.295959,182.794983 
	C178.052551,183.056641 178.007050,183.008316 178.024094,183.036713 
	C177.711166,183.261292 177.376144,183.448456 177.022766,183.915344 
z"/>
<path fill="#F25C00" opacity="1.000000" stroke="none" 
	d="
M83.865768,100.053299 
	C76.631523,99.082565 76.650322,99.085205 75.656403,106.151825 
	C74.090851,117.282661 75.887367,127.972336 79.938866,138.339752 
	C80.946411,140.917984 81.588516,143.385330 80.021301,146.323730 
	C79.370399,147.769821 78.584648,148.918137 77.431503,148.909775 
	C73.094276,148.878235 72.331078,150.956406 73.084389,154.819656 
	C73.686852,157.909271 72.362030,160.716614 69.806198,162.649307 
	C67.480385,164.408051 67.534630,166.387634 68.652946,168.747574 
	C70.925285,173.542740 73.972549,177.668457 78.785995,180.768250 
	C79.080322,180.952560 79.019897,180.976471 79.016907,180.944122 
	C79.237877,181.197861 79.464447,181.481873 79.820450,182.004974 
	C82.855545,183.479736 82.855545,183.479736 81.445618,184.745911 
	C74.114532,182.210648 67.127953,179.964249 62.498001,173.205627 
	C58.363140,167.169708 56.538322,160.777527 56.458538,153.676880 
	C58.195389,153.208466 58.962048,154.760376 60.288853,154.941833 
	C63.470753,155.377014 65.557373,153.277481 64.604233,150.170441 
	C64.027756,148.291260 63.022095,146.503677 61.984955,144.812500 
	C56.118835,135.247009 56.620567,129.801224 64.813400,120.553566 
	C65.222687,124.858696 64.375839,128.869934 66.512619,132.399475 
	C68.538208,135.745361 70.750046,138.730591 75.449692,140.164902 
	C74.020462,134.257050 72.596497,128.806351 71.726288,123.241356 
	C70.470901,115.213150 70.680733,107.445297 72.691284,99.534996 
	C73.768761,95.295776 75.178490,93.413155 79.674828,95.013969 
	C81.142647,95.536552 82.736443,96.436729 84.976349,95.526794 
	C82.033485,85.256584 82.054634,75.104332 87.887978,65.563408 
	C92.187820,58.530670 98.382248,53.727596 105.806046,49.544296 
	C106.209671,52.714310 104.537331,54.703983 103.393967,56.750542 
	C101.537773,60.073006 99.986351,63.263294 102.422989,66.960335 
	C103.832710,69.099243 105.866943,69.540482 108.109055,69.016479 
	C112.401352,68.013336 115.712173,65.761536 116.998611,61.256321 
	C118.494308,56.018238 118.319672,50.722546 117.450851,45.425713 
	C115.247299,31.991688 120.347313,23.222435 133.430695,18.147341 
	C134.761230,19.265457 133.935089,20.535450 133.573898,21.701849 
	C131.483154,28.453409 133.110641,34.146935 138.333008,38.861065 
	C139.569565,39.977283 140.696991,41.231789 142.017059,42.235310 
	C150.926041,49.007931 156.016922,57.641281 155.530319,69.148705 
	C155.425262,71.633476 155.755157,74.136734 155.886200,76.631393 
	C156.150223,81.657486 159.013931,84.710388 163.662643,85.764626 
	C168.456375,86.851753 170.969528,83.620628 172.898392,79.838394 
	C173.341370,78.969795 173.788574,78.103340 174.391998,76.927757 
	C178.061920,81.164108 178.769669,85.647842 177.397186,90.561356 
	C176.475342,93.861610 176.773575,96.038597 180.987061,94.531021 
	C184.108475,93.414185 184.362183,95.877205 184.824234,97.632347 
	C188.265259,110.704025 188.022171,123.612366 182.790695,136.245071 
	C182.157837,137.773270 181.372253,139.285904 181.050323,140.884842 
	C180.458969,143.822189 181.170227,146.481339 184.584839,146.859894 
	C187.846207,147.221451 188.946518,144.703537 188.921371,142.006180 
	C188.885025,138.110855 189.299759,134.358139 191.041168,130.857498 
	C191.885361,129.160477 192.451004,127.145912 195.287903,126.093239 
	C193.939484,132.850372 196.884644,138.273804 198.778015,144.045029 
	C204.003006,159.971359 196.162354,174.921555 178.412964,183.068665 
	C178.895111,178.646698 183.326797,176.539520 184.973190,172.229584 
	C185.288574,171.754532 185.433380,171.585770 185.800629,171.168457 
	C186.023087,170.919907 186.006195,171.019226 185.956512,171.010895 
	C189.083145,167.162277 188.098083,162.222427 189.287262,157.853790 
	C189.930206,155.491837 187.826355,156.006760 186.356415,156.068466 
	C183.473907,156.189468 180.269165,157.110336 178.520477,153.117722 
	C176.599823,145.533173 177.403641,138.605698 179.987900,131.516739 
	C183.285385,122.471298 183.055450,112.930763 181.949463,103.447777 
	C181.576950,100.253723 180.656754,97.821335 176.300659,99.772415 
	C174.367920,99.275711 172.263824,99.943184 171.307236,98.330505 
	C169.123199,94.648438 166.186646,95.586319 162.795502,96.049255 
	C153.905548,97.262840 145.707870,90.320038 144.751038,81.195877 
	C144.473129,78.545837 144.266022,75.812309 144.820801,73.222321 
	C146.510223,65.335129 143.434174,59.226448 138.019440,53.928516 
	C133.377823,49.387024 129.173538,44.565357 127.122231,38.982574 
	C127.548187,43.222931 128.287949,48.156940 129.038132,53.090202 
	C130.401657,62.056911 126.201073,71.762230 119.105042,76.084816 
	C110.327408,81.431763 103.279716,80.291275 95.237846,71.822563 
	C93.924355,74.953812 93.305176,77.812309 93.850098,80.999077 
	C94.555367,85.123573 95.791237,89.086357 97.110634,93.036903 
	C97.960098,95.580360 98.745155,98.143829 97.249100,101.086731 
	C95.057487,103.163727 93.179901,102.378563 91.145782,101.356346 
	C89.007660,100.281853 86.872284,98.663124 83.865768,100.053299 
z"/>
<path fill="#EF5A00" opacity="1.000000" stroke="none" 
	d="
M110.604004,220.791351 
	C112.097450,221.362366 113.237221,221.703278 114.739517,222.044785 
	C117.782524,219.891495 120.563667,221.533157 123.699997,221.833374 
	C131.879913,225.056320 139.519638,222.818085 147.554504,221.086060 
	C151.547073,220.181549 154.006332,215.957657 158.709869,217.712112 
	C166.456284,215.179169 166.420334,215.188004 164.006165,205.369202 
	C163.492844,203.281448 161.252533,200.265152 166.424561,200.268707 
	C167.868973,203.486862 169.092957,206.574646 169.978363,209.756638 
	C170.676651,212.266083 171.823639,211.991577 173.546768,210.881683 
	C193.229874,198.203644 205.549911,180.472122 208.885422,157.245026 
	C212.902328,129.273117 204.261002,105.425674 183.576065,86.091080 
	C180.690155,83.393578 179.848526,80.065002 179.086853,76.263580 
	C204.388153,91.685585 222.068298,128.457626 212.539352,166.322632 
	C203.214676,203.376038 167.931274,229.465317 128.169586,228.909790 
	C88.217781,228.351578 53.357399,201.624664 45.056641,165.195038 
	C36.373539,127.087448 54.492290,90.775208 78.039032,76.253654 
	C78.226295,80.289246 76.635399,83.254845 73.797852,85.928612 
	C56.377625,102.343407 47.756802,122.777740 48.155697,146.512100 
	C48.615864,173.892395 60.838451,195.219147 83.748642,210.386749 
	C86.298164,212.074646 87.292618,211.807114 88.027069,208.825424 
	C88.778008,205.776886 89.989304,202.841751 91.034927,199.485199 
	C94.093811,198.559326 95.062172,199.827255 94.357613,202.719788 
	C93.848564,204.809662 93.594635,206.968399 92.990784,209.027145 
	C91.597870,213.776062 93.285744,216.558990 98.406685,217.685913 
	C100.487854,216.315048 102.273926,216.616852 104.095688,217.739090 
	C106.029839,218.930542 108.019661,220.011414 110.604004,220.791351 
z"/>
<path fill="#F05B00" opacity="1.000000" stroke="none" 
	d="
M171.512878,62.468376 
	C169.781586,67.519844 168.195145,72.199860 166.492477,77.222710 
	C163.094467,74.187897 161.921295,70.458366 161.996399,66.215584 
	C162.102585,60.216465 163.752808,54.221928 160.987427,47.350880 
	C167.938232,50.975475 172.029053,54.989197 171.512878,62.468376 
z"/>
<path fill="#EB5900" opacity="1.000000" stroke="none" 
	d="
M106.821625,29.517513 
	C105.702614,33.792454 107.861984,38.344288 103.973732,41.633026 
	C101.853584,43.426281 100.843613,43.559448 99.856346,40.633316 
	C98.189781,35.693794 100.512802,29.546284 105.098747,27.470951 
	C107.081230,26.573799 106.916214,27.863470 106.821625,29.517513 
z"/>
<path fill="#F25C00" opacity="1.000000" stroke="none" 
	d="
M177.249695,184.069702 
	C175.804611,182.921722 176.738449,182.579285 177.940414,182.687729 
	C177.857635,183.355606 177.674118,183.646072 177.249695,184.069702 
z"/>
<path fill="#FBAD00" opacity="1.000000" stroke="none" 
	d="
M83.799454,100.325897 
	C84.327095,97.184639 86.116966,96.692055 88.684433,97.919083 
	C90.864616,98.961006 93.084175,99.920532 95.646530,100.968719 
	C96.664093,100.953674 97.313461,100.662956 97.972298,100.790894 
	C103.278656,101.821350 103.320457,101.824440 102.793060,96.709305 
	C102.396332,92.861549 103.246674,89.665314 106.218376,86.851952 
	C109.507828,83.737762 113.137482,81.193863 116.976326,78.886688 
	C118.935028,77.709488 120.936729,77.004623 122.899399,79.507233 
	C121.301323,84.579147 121.308792,88.803444 125.031265,93.003975 
	C126.959091,95.179359 124.340988,98.309372 124.374916,101.131203 
	C124.430710,105.773041 124.497192,105.937332 129.902313,106.034409 
	C133.637482,106.101494 135.339020,105.237480 134.731384,100.871445 
	C134.215805,97.166840 133.191696,93.108208 136.145279,89.553932 
	C137.086121,88.421730 136.256912,86.675888 135.217667,85.089813 
	C134.940918,84.605721 134.848022,84.404686 134.617935,83.906097 
	C134.273392,83.226234 134.056534,82.849396 133.628235,82.221863 
	C132.364838,80.416664 130.296051,80.220818 128.972351,78.471306 
	C128.730377,77.925552 128.667419,77.691925 128.558960,77.095764 
	C128.089905,74.919502 128.802109,73.484810 130.036682,72.238625 
	C132.895050,69.353340 135.071869,66.094597 135.932220,62.037750 
	C136.271454,60.438171 137.314392,59.337723 139.044952,59.323727 
	C140.784683,59.309658 141.620605,60.525585 142.267227,61.985313 
	C143.528488,64.832527 143.418457,67.817635 143.257080,70.804886 
	C142.787704,79.494530 144.924042,87.244156 151.312759,93.494286 
	C152.883682,95.031128 154.106064,96.710121 154.296463,99.049965 
	C154.573837,102.458832 156.490585,102.111061 158.812683,100.902489 
	C161.166672,99.677315 163.232376,97.903702 165.789886,97.089104 
	C169.015182,96.061813 171.455597,96.471169 171.388123,100.997391 
	C162.891312,105.534630 155.268509,110.738914 149.535477,118.289970 
	C148.134033,120.135811 146.820343,120.138199 144.847305,119.521683 
	C134.444077,116.271019 123.943245,116.230377 113.540482,119.376259 
	C110.994400,120.146225 109.690636,119.613945 108.081696,117.713799 
	C101.547729,109.997177 93.639175,104.118546 83.799454,100.325897 
z"/>
<path fill="#FF9E00" opacity="1.000000" stroke="none" 
	d="
M171.618988,101.268875 
	C169.954193,98.219070 167.901337,98.250854 165.317902,99.852226 
	C161.937729,101.947456 158.547882,104.047020 155.031464,105.896141 
	C152.288559,107.338524 150.670685,106.361359 151.522690,103.190071 
	C152.565659,99.307991 151.164948,96.625183 148.498856,93.886688 
	C142.220383,87.437622 140.093124,79.430489 140.810669,70.608505 
	C141.079239,67.306572 140.979980,64.149422 138.620911,60.956249 
	C138.752777,67.895439 133.344360,71.413994 130.041641,76.566200 
	C129.413330,77.596077 128.762665,78.217339 128.242752,79.332428 
	C127.880348,79.746490 127.716103,79.892929 127.293510,80.240448 
	C126.850479,80.553436 126.665794,80.665329 126.181793,80.888405 
	C125.681961,81.063622 125.481461,81.127663 124.972610,81.237083 
	C124.460526,81.265167 124.256790,81.247879 123.472839,81.077408 
	C122.739212,80.797676 122.585800,80.671120 122.236038,80.319992 
	C112.806808,80.469948 103.983330,91.000908 105.776077,99.295403 
	C106.262131,101.544235 108.426987,104.479149 105.729271,106.112961 
	C103.399391,107.524002 101.206154,104.918549 99.122879,103.701340 
	C98.136398,103.124962 97.306145,102.281204 96.205933,101.289749 
	C96.123672,94.346535 92.401787,88.602669 91.458977,82.163536 
	C90.564522,76.054787 91.571747,70.702515 96.247734,66.137123 
	C100.412270,75.748627 104.833214,78.481606 112.393578,76.358406 
	C121.947258,73.675415 128.265778,63.797932 126.728378,54.019627 
	C125.725212,47.639267 123.878288,41.280087 126.025612,34.784451 
	C126.274208,34.032440 126.611099,33.309616 127.370796,31.419453 
	C129.287262,41.384445 135.154282,47.548569 141.202209,53.692089 
	C146.508667,59.082428 148.762146,65.464500 147.361145,73.287193 
	C145.298187,84.806061 149.871582,91.848816 159.648499,93.589073 
	C164.453537,94.444351 168.185715,91.558029 172.678726,89.866425 
	C173.001633,93.432579 170.464310,97.668297 175.669357,99.584686 
	C174.595734,100.236832 173.276230,100.711273 171.618988,101.268875 
z"/>
<path fill="#EF6500" opacity="1.000000" stroke="none" 
	d="
M107.696152,178.372986 
	C108.436577,178.064148 108.844070,177.964417 109.562218,177.812271 
	C111.173447,178.097794 112.362221,177.579865 113.747948,177.008362 
	C125.296822,169.185898 136.352844,172.210861 147.669250,177.905197 
	C149.032776,178.832062 150.213104,178.391281 151.657135,178.361862 
	C152.733536,178.228348 153.481339,178.198334 154.598785,178.231918 
	C156.184952,179.188721 157.639954,178.900787 159.331299,179.217041 
	C160.493408,179.823074 161.228531,180.412979 161.757782,181.643494 
	C161.730026,183.741791 160.463089,184.482864 159.113403,185.197678 
	C157.364563,186.123886 156.118317,187.275848 157.193039,189.528610 
	C157.733658,190.661896 157.631760,192.246674 156.628006,192.698578 
	C151.466904,195.022247 147.874741,200.562836 141.070465,200.057037 
	C139.738159,199.311661 138.816345,198.575150 137.533279,197.737183 
	C136.590790,197.218155 135.950775,196.888275 134.929642,196.498062 
	C133.863510,196.075150 133.251358,195.644516 132.679474,194.621002 
	C131.107666,190.696243 130.938400,187.179169 133.039703,183.379456 
	C133.490829,181.321579 134.729156,180.624008 136.561661,180.120453 
	C137.324112,179.970322 137.751953,180.017944 137.867310,180.057495 
	C137.362427,179.862762 137.154053,179.795517 136.625946,179.635681 
	C132.632599,178.731949 128.953445,177.415558 125.233414,179.910248 
	C125.069099,180.467728 125.002968,180.782501 125.037476,181.341339 
	C125.265259,181.924759 125.372231,182.279968 125.505310,182.955627 
	C125.574295,183.486496 125.591797,183.704880 125.652802,184.258240 
	C127.442329,188.425842 125.700867,191.565033 123.539452,194.982666 
	C123.251823,195.519577 123.121063,195.725754 122.711273,196.168610 
	C121.991714,196.610214 121.560440,196.833054 120.821243,197.247818 
	C118.826324,198.344742 117.369873,199.623199 115.304413,200.584473 
	C109.679131,199.160248 105.821815,195.129395 101.076797,192.623108 
	C100.457474,192.295990 100.011848,191.386078 100.324249,190.944214 
	C103.930351,185.843567 98.969978,185.869553 96.175491,184.259552 
	C95.864975,184.102646 95.938538,184.078064 95.922394,184.113312 
	C95.193665,183.107559 94.067230,182.279755 94.303436,180.438843 
	C94.590988,179.870697 94.761444,179.673996 95.286476,179.312225 
	C99.531822,178.613892 103.493378,179.549255 107.696152,178.372986 
z"/>
<path fill="#E85700" opacity="1.000000" stroke="none" 
	d="
M96.019531,184.399841 
	C99.940643,184.047363 102.830376,186.905441 106.467522,188.016220 
	C105.844246,189.712082 104.505386,189.561188 103.505600,189.910004 
	C101.485161,190.614868 101.603676,191.734772 103.133209,192.621277 
	C106.842026,194.770889 110.064445,197.800262 114.710251,198.970520 
	C118.003212,199.034317 120.549438,197.499542 122.804115,196.154663 
	C126.654411,193.858047 129.983765,193.874222 133.900711,195.724533 
	C135.937744,196.686813 138.155716,197.437714 140.677948,198.101944 
	C146.582886,198.913742 150.153488,194.938461 154.354370,192.582367 
	C155.410904,191.989822 156.227676,190.550095 155.000793,189.749573 
	C150.806412,187.012909 154.469360,186.530365 156.091751,185.453217 
	C157.583344,184.462860 159.105270,183.518219 160.820190,182.284943 
	C161.057129,181.018021 160.516312,180.432449 159.317291,180.043625 
	C157.671417,179.936676 156.290283,180.051025 155.145355,178.570251 
	C159.743683,178.138321 164.317780,176.815414 169.354828,175.812943 
	C170.019180,175.739304 170.287659,175.734131 170.613373,176.127670 
	C167.426392,181.421478 162.502502,184.469040 157.817139,187.536453 
	C158.517960,189.301422 159.718719,188.722565 160.591537,188.972305 
	C161.465164,189.222290 162.901154,188.813858 162.792770,190.232132 
	C162.726746,191.096054 161.993881,192.419785 161.279190,192.645294 
	C153.040543,195.244812 147.207382,201.609680 140.082993,205.909393 
	C131.475464,211.104202 121.929535,209.935074 113.810196,203.152039 
	C108.970627,199.108978 104.114975,195.214569 98.251015,192.685867 
	C95.433289,191.470779 95.216194,190.106232 97.261368,189.129120 
	C97.834480,188.855270 98.587524,188.979797 99.201035,188.761429 
	C99.634491,188.607147 99.971901,188.182938 100.387047,187.851395 
	C99.546638,185.973328 97.199402,186.208542 96.019531,184.399841 
z"/>
<path fill="#E36100" opacity="1.000000" stroke="none" 
	d="
M166.112930,142.075287 
	C167.382584,142.037277 168.213577,142.011444 169.044342,142.017334 
	C170.123337,142.024979 171.038925,142.237564 170.952316,143.640152 
	C170.885437,144.723587 170.151337,144.942856 169.263702,145.012268 
	C157.714310,145.915314 147.203232,150.673248 136.268784,153.869522 
	C129.626190,155.811203 123.086914,154.640472 116.728271,152.507523 
	C107.780487,149.506042 98.890656,146.347488 89.474701,145.076157 
	C88.438431,144.936249 86.812485,145.295715 87.165619,143.396149 
	C87.484634,141.680161 88.887444,142.278214 89.980019,142.402725 
	C98.732002,143.400253 107.321396,145.152435 115.554810,148.336395 
	C124.482506,151.788834 133.269897,151.757660 142.170883,148.123840 
	C149.705688,145.047745 157.530350,142.900635 166.112930,142.075287 
z"/>
<path fill="#F8AC00" opacity="1.000000" stroke="none" 
	d="
M78.978226,180.626907 
	C72.944893,179.524445 64.799469,170.668457 64.236496,164.900940 
	C64.105141,163.555283 64.608688,162.811676 65.689522,162.049103 
	C71.524422,157.932327 72.008682,156.973236 69.494080,150.206009 
	C67.833038,145.735840 68.750374,144.934525 73.109489,146.350021 
	C74.934059,146.942520 77.044922,146.653366 79.444290,146.715332 
	C78.939705,153.399551 79.139931,160.038910 82.052879,166.627075 
	C78.061142,167.251785 74.901733,165.381775 71.188850,165.056122 
	C71.961807,171.293335 74.886078,176.058395 78.978226,180.626907 
z"/>
<path fill="#F88100" opacity="1.000000" stroke="none" 
	d="
M105.975586,155.774261 
	C110.489250,157.516525 113.439568,160.660767 116.539520,163.666321 
	C118.864304,165.920319 117.999939,167.281311 115.655922,168.545013 
	C106.589233,173.433044 95.203392,167.295334 94.181244,157.121307 
	C93.894264,154.264816 94.990059,153.627533 97.450836,153.780487 
	C100.281601,153.956406 103.024925,154.429092 105.975586,155.774261 
z"/>
<path fill="#F7AA00" opacity="1.000000" stroke="none" 
	d="
M178.256409,153.253052 
	C182.249359,154.317688 186.047226,154.750793 189.611038,151.943909 
	C190.357971,151.355621 191.149780,150.328369 192.172867,151.013016 
	C193.272278,151.748749 193.055222,153.131744 192.825165,154.214813 
	C191.590302,160.027863 190.398758,165.875198 186.216492,170.844055 
	C185.935257,168.734390 187.866577,166.695786 186.748596,164.245850 
	C184.036407,164.944336 181.340744,165.558884 178.695312,166.342911 
	C176.197418,167.083191 175.556320,166.301285 176.459290,163.958511 
	C177.732437,160.655365 178.216614,157.221710 178.256409,153.253052 
z"/>
<path fill="#DD4C00" opacity="1.000000" stroke="none" 
	d="
M83.198929,127.549149 
	C79.848534,121.571930 80.930397,114.970299 80.428497,108.598228 
	C80.157768,105.161110 82.725594,106.486465 84.150146,107.165627 
	C92.595329,111.191864 98.348312,117.272736 98.929375,127.996803 
	C94.783493,124.445015 92.906158,119.583755 88.309891,117.040398 
	C85.074654,117.382477 85.727623,119.769836 85.428505,121.603592 
	C85.093117,123.659637 85.710938,126.010773 83.198929,127.549149 
z"/>
<path fill="#DD4D00" opacity="1.000000" stroke="none" 
	d="
M170.504547,117.139847 
	C165.586853,119.679543 163.184875,124.318207 159.739777,128.378250 
	C158.722015,119.496719 165.934509,109.300011 174.374832,107.061539 
	C176.388214,106.527565 177.219254,107.252792 177.129990,109.185623 
	C176.909409,113.962090 177.584915,118.781456 176.251617,123.767967 
	C175.864319,124.158371 175.682037,124.295410 175.159393,124.416908 
	C172.043091,123.176140 173.255417,120.081581 171.693237,117.978317 
	C171.330475,117.641571 171.181030,117.513977 170.504547,117.139847 
z"/>
<path fill="#FD9C00" opacity="1.000000" stroke="none" 
	d="
M145.747589,159.916595 
	C148.283234,156.910797 151.472900,155.615189 155.270050,154.718872 
	C160.715027,155.311615 162.278442,157.856949 160.322357,162.288773 
	C158.374466,166.702026 152.345032,170.140686 147.689148,169.220795 
	C144.128784,168.517349 141.963943,166.554504 143.293304,162.028168 
	C143.448090,161.562439 143.508560,161.558914 143.494873,161.531891 
	C143.947403,161.814880 144.347824,161.762787 144.666153,160.916931 
	C144.660812,160.545319 144.703308,160.696060 144.627258,160.714752 
	C145.031570,160.815506 145.399780,160.640488 145.747589,159.916595 
z"/>
<path fill="#9D2300" opacity="1.000000" stroke="none" 
	d="
M82.826218,127.975105 
	C83.096504,124.072411 83.249168,120.509232 83.623154,116.969437 
	C83.727921,115.977806 83.525948,114.353020 85.000351,114.194954 
	C86.354057,114.049843 87.432808,114.921776 87.924347,116.651016 
	C88.938927,124.569099 89.587425,132.242630 93.003563,139.292801 
	C87.865143,140.077438 85.118294,137.126678 82.826218,127.975105 
z"/>
<path fill="#9D2300" opacity="1.000000" stroke="none" 
	d="
M170.820648,116.155861 
	C172.799255,113.224968 174.214737,113.160294 174.752380,116.670135 
	C175.071945,118.756340 175.011047,120.900818 175.149002,123.448990 
	C175.516113,124.349968 175.483063,124.913589 175.708740,125.682671 
	C175.157990,129.542755 173.934891,132.974304 171.989899,136.119156 
	C170.510788,138.510681 168.548950,140.009506 165.428055,139.545868 
	C167.625473,132.200409 169.339752,125.072601 170.034866,117.316803 
	C169.977524,116.893303 169.997803,116.976044 169.956436,116.986176 
	C170.209610,116.830704 170.452194,116.608406 170.820648,116.155861 
z"/>
<path fill="#EB5C00" opacity="1.000000" stroke="none" 
	d="
M143.167267,161.737488 
	C144.280151,165.691971 145.936172,168.800156 151.010880,168.054382 
	C155.602707,167.379608 157.946945,164.455368 158.830154,160.228821 
	C159.288391,158.035919 159.028412,155.853424 155.993805,154.811676 
	C158.324173,153.754211 161.810226,152.526978 163.477722,154.874786 
	C165.382904,157.557297 163.632187,160.886688 161.665680,163.546906 
	C157.042633,169.800735 148.676743,172.148102 143.404114,168.801132 
	C139.976227,166.625153 139.053665,164.512497 143.167267,161.737488 
z"/>
<path fill="#E14E00" opacity="1.000000" stroke="none" 
	d="
M114.302200,128.999664 
	C116.593369,131.801071 118.924431,134.172913 120.741501,136.888657 
	C122.435753,139.420868 123.889816,142.256226 122.689247,145.590012 
	C115.942917,142.657745 111.411903,136.231674 111.984703,130.514069 
	C112.142761,128.936371 112.142754,128.936371 114.302200,128.999664 
z"/>
<path fill="#E04D00" opacity="1.000000" stroke="none" 
	d="
M135.271149,145.315445 
	C134.875397,137.217270 141.146957,133.374741 145.025635,127.830345 
	C147.599167,134.455185 142.948959,142.790985 135.271149,145.315445 
z"/>
<path fill="#E85700" opacity="1.000000" stroke="none" 
	d="
M107.566925,178.102112 
	C104.443527,181.743622 99.936005,179.247818 95.460541,180.000732 
	C95.272842,181.148361 95.546150,182.296478 95.862854,183.796570 
	C92.202499,182.755905 90.115227,179.729553 87.070396,175.611435 
	C94.472160,177.422485 100.720650,178.578140 107.566925,178.102112 
z"/>
<path fill="#D34600" opacity="1.000000" stroke="none" 
	d="
M110.760696,220.751434 
	C106.860291,221.075150 103.323708,218.992142 99.110741,217.925140 
	C99.057350,215.582214 99.167610,213.266678 100.719414,210.872116 
	C103.348480,214.916412 106.322502,218.391617 110.760696,220.751434 
z"/>
<path fill="#AF2F00" opacity="1.000000" stroke="none" 
	d="
M123.928726,221.536743 
	C121.444412,223.828751 118.605835,222.860336 115.450424,222.211441 
	C114.416161,219.935028 113.730255,217.824677 112.811752,214.998703 
	C116.908096,217.330429 120.337318,219.282410 123.928726,221.536743 
z"/>
<path fill="#CD4300" opacity="1.000000" stroke="none" 
	d="
M158.923401,217.607635 
	C155.525116,218.722000 152.457596,220.977783 148.332306,220.976593 
	C150.827698,217.566238 155.109970,215.597656 157.302460,211.175400 
	C158.679367,213.361618 158.583099,215.341995 158.923401,217.607635 
z"/>
<path fill="#E85700" opacity="1.000000" stroke="none" 
	d="
M113.564545,176.813522 
	C113.003090,177.914001 112.007072,178.873215 110.111374,177.935486 
	C110.764740,176.623184 112.125046,177.276764 113.564545,176.813522 
z"/>
<path fill="#E85700" opacity="1.000000" stroke="none" 
	d="
M151.596649,178.161484 
	C150.850357,178.897461 149.697159,179.050430 148.260498,178.216110 
	C149.073853,178.052673 150.140717,178.058640 151.596649,178.161484 
z"/>
<path fill="#BA3D00" opacity="1.000000" stroke="none" 
	d="
M175.928131,125.606400 
	C175.626038,125.423454 175.401367,124.929771 175.176758,124.157486 
	C175.176804,123.878876 175.613571,123.938705 175.830078,123.980026 
	C176.032913,124.446114 176.019226,124.870888 175.928131,125.606400 
z"/>
<path fill="#F8AC00" opacity="1.000000" stroke="none" 
	d="
M79.982544,181.925232 
	C79.695427,181.976181 79.443527,181.706223 79.102776,181.174011 
	C79.348541,181.142624 79.683159,181.373489 79.982544,181.925232 
z"/>
<path fill="#EB5C00" opacity="1.000000" stroke="none" 
	d="
M145.543213,159.695679 
	C145.578278,159.886459 145.333023,160.184402 144.819489,160.607880 
	C144.788452,160.423233 145.025681,160.113037 145.543213,159.695679 
z"/>
<path fill="#EB5C00" opacity="1.000000" stroke="none" 
	d="
M144.413361,160.634781 
	C144.448593,160.832245 144.236359,161.119171 143.752655,161.455475 
	C143.709427,161.244675 143.937668,160.984467 144.413361,160.634781 
z"/>
<path fill="#E85700" opacity="1.000000" stroke="none" 
	d="
M169.977341,175.943878 
	C170.090591,175.612793 170.430481,175.481094 170.770386,175.349396 
	C170.828674,175.590195 170.886948,175.830994 170.807922,176.299072 
	C170.515076,176.398682 170.359528,176.270981 169.977341,175.943878 
z"/>
<path fill="#F7AA00" opacity="1.000000" stroke="none" 
	d="
M185.770844,170.973480 
	C185.824265,171.140564 185.633072,171.367645 185.296661,171.762238 
	C185.268723,171.624557 185.393661,171.325821 185.770844,170.973480 
z"/>
<path fill="#541200" opacity="1.000000" stroke="none" 
	d="
M129.532990,77.583809 
	C131.711990,78.193939 133.802368,77.857605 135.433365,79.754692 
	C136.296875,80.324081 136.487732,80.911919 136.783707,81.802612 
	C136.949860,82.069649 136.976120,82.011162 136.944183,82.008499 
	C138.097580,84.171822 138.726944,86.721092 137.048569,88.538132 
	C133.926849,91.917770 134.359787,95.860764 134.401474,99.795952 
	C134.454117,104.763435 133.419189,106.097221 129.268921,105.973259 
	C125.424461,105.858429 123.712471,104.147316 124.591537,99.735481 
	C125.410156,95.626999 125.151283,92.436104 122.386147,89.027939 
	C120.631538,86.865318 121.296692,83.684929 123.036751,80.813629 
	C123.434853,80.581688 123.506721,80.455772 123.445023,80.417725 
	C123.240562,79.959259 123.329346,79.606079 123.974686,79.220703 
	C124.261574,79.110191 124.099083,79.112823 124.101364,79.194054 
	C124.346291,78.594398 124.976768,78.524101 125.778152,78.161324 
	C126.009529,77.964043 125.967628,77.951973 125.964561,77.973557 
	C126.920357,77.198357 128.059494,77.598816 129.532990,77.583809 
z"/>
<path fill="#F05C00" opacity="1.000000" stroke="none" 
	d="
M123.096481,80.430237 
	C122.367355,84.587357 122.044144,88.320412 125.734039,91.447937 
	C128.202728,93.540375 126.725288,96.327995 126.321327,98.876984 
	C126.071396,100.454079 125.207901,102.529739 126.801376,103.445557 
	C128.046097,104.160919 130.060562,104.009483 131.590668,103.645248 
	C133.902634,103.094879 133.099869,100.860695 132.907318,99.461311 
	C132.333389,95.290207 131.784760,91.423424 135.981827,88.473343 
	C137.752625,87.228661 136.906967,84.786255 136.871887,82.418129 
	C139.356644,84.106461 139.330002,86.822296 137.969376,89.231117 
	C135.578430,93.463989 135.726044,97.724236 136.762115,102.195221 
	C137.670181,106.113693 136.360886,107.957420 131.998169,108.055756 
	C121.706245,108.287743 121.612625,108.438148 123.075935,98.448227 
	C123.501572,95.542427 123.486511,93.169884 121.632210,90.575180 
	C119.469879,87.549454 119.643471,84.002304 121.868904,80.412811 
	C122.279167,80.156532 122.518639,80.217659 123.096481,80.430237 
z"/>
<path fill="#F05C00" opacity="1.000000" stroke="none" 
	d="
M129.958710,77.458755 
	C128.881699,77.759361 127.823647,77.869713 126.363541,77.987602 
	C126.867683,77.080521 128.042023,76.969124 129.584808,76.895813 
	C129.938019,76.888176 129.977676,77.268501 129.958710,77.458755 
z"/>
<path fill="#F05C00" opacity="1.000000" stroke="none" 
	d="
M136.933350,81.745697 
	C136.585373,81.581871 136.220886,81.094101 135.778763,80.290085 
	C136.106369,80.456474 136.511597,80.939110 136.933350,81.745697 
z"/>
<path fill="#F05C00" opacity="1.000000" stroke="none" 
	d="
M125.711090,78.021965 
	C125.574936,78.363373 125.140343,78.762703 124.404694,79.218658 
	C124.539978,78.876816 124.976311,78.478355 125.711090,78.021965 
z"/>
<path fill="#F05C00" opacity="1.000000" stroke="none" 
	d="
M124.030907,79.254425 
	C124.127914,79.442848 123.994255,79.775505 123.621948,80.243927 
	C123.522285,80.052666 123.661263,79.725655 124.030907,79.254425 
z"/>
<path fill="#1F0C09" opacity="1.000000" stroke="none" 
	d="
M140.763062,197.846008 
	C140.468643,199.652008 139.208633,199.142670 138.253586,198.642136 
	C131.572540,195.140610 125.064919,196.183533 118.591492,199.212830 
	C117.565002,199.693161 116.538002,200.322662 115.206863,199.352020 
	C116.527168,198.069153 117.977806,197.129349 119.710464,196.021667 
	C120.180191,195.722015 120.367889,195.590271 120.822678,195.241745 
	C121.089767,195.024963 121.531593,194.935776 121.747604,194.871490 
	C127.127716,190.057205 127.127716,190.057205 124.257698,184.207230 
	C124.036552,183.943436 123.998573,183.992371 124.025932,183.978043 
	C123.595177,183.598404 123.042358,183.505249 122.243279,183.279755 
	C120.715691,182.148651 118.853920,181.395187 120.690613,179.037048 
	C126.386406,177.385986 131.809845,177.822922 137.606659,178.891998 
	C137.975006,179.204620 137.958847,179.056396 137.884796,179.064926 
	C137.997421,179.196381 138.184128,179.319305 138.197830,179.729477 
	C137.265762,180.953766 136.596741,181.996033 135.125793,182.561874 
	C130.687424,187.792648 130.547775,188.867798 133.744781,193.852173 
	C134.438873,194.394897 134.916351,194.667206 135.677643,194.996277 
	C136.546799,195.032532 137.089920,195.159973 137.799744,195.679840 
	C138.847672,196.471512 139.664871,197.095169 140.763062,197.846008 
z"/>
<path fill="#E85700" opacity="1.000000" stroke="none" 
	d="
M137.705521,178.920349 
	C132.626022,179.106415 127.277054,179.008209 121.460335,178.872314 
	C126.438248,175.829117 131.924789,176.209854 137.705521,178.920349 
z"/>
<path fill="#E85700" opacity="1.000000" stroke="none" 
	d="
M124.055313,184.321228 
	C129.637970,187.749405 129.242950,190.934448 122.319321,194.864349 
	C123.500175,191.611755 125.675964,188.549759 124.055313,184.321228 
z"/>
<path fill="#E85700" opacity="1.000000" stroke="none" 
	d="
M133.893097,193.729218 
	C131.171310,193.738693 130.098618,191.760193 130.086975,189.329468 
	C130.073135,186.440079 130.979004,183.858658 134.561661,182.844925 
	C133.594208,186.205856 132.254135,189.618362 133.893097,193.729218 
z"/>
<path fill="#EE6500" opacity="1.000000" stroke="none" 
	d="
M159.158539,180.235977 
	C160.283218,179.205353 161.791183,178.448563 162.906006,179.821762 
	C163.712875,180.815628 162.500778,181.441437 161.315384,181.931076 
	C160.457245,181.503235 159.887924,180.990036 159.158539,180.235977 
z"/>
<path fill="#E85700" opacity="1.000000" stroke="none" 
	d="
M137.939560,195.630081 
	C137.433334,195.768402 136.836212,195.688965 136.100250,195.331268 
	C136.718964,194.498016 137.367661,194.514709 137.939560,195.630081 
z"/>
<path fill="#E85700" opacity="1.000000" stroke="none" 
	d="
M122.231857,183.296890 
	C122.595749,183.222244 123.192169,183.303680 123.920944,183.674408 
	C123.523659,183.793457 122.994026,183.623215 122.231857,183.296890 
z"/>
<path fill="#E85700" opacity="1.000000" stroke="none" 
	d="
M138.092102,179.892593 
	C138.024841,180.016708 137.887390,179.552460 137.849060,179.312958 
	C138.089554,179.229645 138.205765,179.461319 138.092102,179.892593 
z"/>
<path fill="#E85700" opacity="1.000000" stroke="none" 
	d="
M120.891060,195.140961 
	C120.896629,195.299606 120.703499,195.574249 120.251419,195.851349 
	C120.206978,195.632782 120.440269,195.433838 120.891060,195.140961 
z"/>
<path fill="#1A0A0A" opacity="1.000000" stroke="none" 
	d="
M170.722839,116.027420 
	C170.824020,116.304428 170.649597,116.626556 170.195129,116.972496 
	C170.092468,116.688385 170.269867,116.380463 170.722839,116.027420 
z"/>
<path fill="#EF6500" opacity="1.000000" stroke="none" 
	d="
M94.999763,180.000122 
	C94.999527,180.000259 94.953674,179.920059 94.976990,179.959717 
	C95.000305,179.999390 95.000000,180.000000 94.999763,180.000122 
z"/>
</svg>